<svg width="20" height="20" viewBox="0 0 20 20" fill="none" xmlns="http://www.w3.org/2000/svg">
<rect width="20" height="20" fill="#E5E5E5"/>
<rect width="1920" height="2668" transform="translate(-1545 -122)" fill="#252525"/>
<g clip-path="url(#clip0_0_1)">
<path d="M-11.8235 -2.5H9.82353C16.8309 -2.5 22.5 3.10278 22.5 10C22.5 16.8972 16.8309 22.5 9.82353 22.5H-11.8235C-18.8309 22.5 -24.5 16.8972 -24.5 10C-24.5 3.10278 -18.8309 -2.5 -11.8235 -2.5Z" fill="white" stroke="white"/>
<g filter="url(#filter0_dd_0_1)">
<path d="M9.82364 -2.53577H-11.8234C-18.8407 -2.53577 -24.5293 3.07666 -24.5293 9.99995C-24.5293 16.9232 -18.8407 22.5357 -11.8234 22.5357H9.82364C16.8409 22.5357 22.5295 16.9232 22.5295 9.99995C22.5295 3.07666 16.8409 -2.53577 9.82364 -2.53577Z" fill="#363636" fill-opacity="0.72"/>
</g>
<path d="M10 20C15.5228 20 20 15.5228 20 10C20 4.47715 15.5228 0 10 0C4.47715 0 0 4.47715 0 10C0 15.5228 4.47715 20 10 20Z" fill="white"/>
<g clip-path="url(#clip1_0_1)">
<path d="M9.99989 5.7179C7.63495 5.7179 5.71777 7.63507 5.71777 10C5.71777 12.365 7.63495 14.2821 9.99989 14.2821C12.3648 14.2821 14.282 12.365 14.282 10C14.282 7.63507 12.3648 5.7179 9.99989 5.7179ZM9.99989 13.5V6.50002C11.6617 6.4956 13.0949 7.6667 13.4217 9.29611C13.526 9.75959 13.526 10.2404 13.4217 10.7039C13.0949 12.3334 11.6617 13.5045 9.99989 13.5Z" fill="#252525"/>
<path d="M13.4417 6.55866C13.5139 6.63235 13.6123 6.67449 13.7154 6.67599C13.8186 6.67453 13.917 6.63235 13.9891 6.55866L14.9473 5.60056C15.1201 5.47095 15.155 5.22585 15.0255 5.05306C14.8959 4.88026 14.6508 4.84527 14.478 4.97484C14.4483 4.99707 14.422 5.02341 14.3998 5.05306L13.4416 6.01116C13.2904 6.14986 13.2803 6.38489 13.4191 6.53605C13.4263 6.54391 13.4338 6.55144 13.4417 6.55866Z" fill="#252525"/>
<path d="M6.48036 13.4415C6.34132 13.3372 6.15011 13.3372 6.01107 13.4415L5.05297 14.3996C4.90177 14.5383 4.89167 14.7733 5.03041 14.9245C5.03759 14.9323 5.04515 14.9399 5.05297 14.9471C5.19167 15.0983 5.42671 15.1084 5.57787 14.9696C5.58573 14.9624 5.59325 14.9549 5.60044 14.9471L6.55854 13.9889C6.68815 13.8162 6.65315 13.5711 6.48036 13.4415Z" fill="#252525"/>
<path d="M14.9471 14.3995L13.989 13.4414C13.8162 13.3118 13.5711 13.3468 13.4415 13.5196C13.3372 13.6587 13.3372 13.8499 13.4415 13.9889L14.3996 14.947C14.5383 15.0982 14.7733 15.1083 14.9245 14.9696C14.9323 14.9624 14.9399 14.9548 14.947 14.947C15.0982 14.8083 15.1083 14.5733 14.9696 14.4221C14.9625 14.4142 14.9549 14.4067 14.9471 14.3995Z" fill="#252525"/>
<path d="M6.01095 6.55866C6.14965 6.70986 6.38468 6.71997 6.53585 6.58123C6.54371 6.57404 6.55123 6.56648 6.55842 6.55866C6.70962 6.41996 6.71972 6.18493 6.58098 6.03377C6.5738 6.02591 6.56624 6.01838 6.55842 6.0112L5.60031 5.0531C5.42752 4.92349 5.18242 4.95852 5.05281 5.13132C4.94854 5.27035 4.94854 5.46156 5.05281 5.6006L6.01095 6.55866Z" fill="#252525"/>
<path d="M10.0004 5.13129C10.2164 5.13129 10.3915 4.95621 10.3915 4.74023V3.39106C10.3915 3.17508 10.2164 3 10.0004 3C9.78445 3 9.60938 3.17508 9.60938 3.39106V4.74023C9.60938 4.95621 9.78445 5.13129 10.0004 5.13129Z" fill="#252525"/>
<path d="M10.0004 14.8688C9.78445 14.8688 9.60938 15.0439 9.60938 15.2598V16.609C9.60938 16.825 9.78445 17.0001 10.0004 17.0001C10.2164 17.0001 10.3915 16.825 10.3915 16.609V15.2598C10.3915 15.0439 10.2164 14.8688 10.0004 14.8688Z" fill="#252525"/>
<path d="M16.6094 9.60901H15.2602C15.0442 9.60901 14.8691 9.78409 14.8691 10.0001C14.8691 10.2161 15.0442 10.3911 15.2602 10.3911H16.6094C16.8254 10.3911 17.0004 10.2161 17.0004 10.0001C17.0004 9.78409 16.8253 9.60901 16.6094 9.60901Z" fill="#252525"/>
<path d="M5.13129 10.0001C5.13129 9.78409 4.95621 9.60901 4.74023 9.60901H3.39106C3.17508 9.60901 3 9.78409 3 10.0001C3 10.2161 3.17508 10.3911 3.39106 10.3911H4.74023C4.95621 10.3911 5.13129 10.2161 5.13129 10.0001Z" fill="#252525"/>
</g>
</g>
<defs>
<filter id="filter0_dd_0_1" x="-82.5293" y="-54.5358" width="163.059" height="151.071" filterUnits="userSpaceOnUse" color-interpolation-filters="sRGB">
<feFlood flood-opacity="0" result="BackgroundImageFix"/>
<feColorMatrix in="SourceAlpha" type="matrix" values="0 0 0 0 0 0 0 0 0 0 0 0 0 0 0 0 0 0 127 0" result="hardAlpha"/>
<feOffset dy="16"/>
<feGaussianBlur stdDeviation="29"/>
<feColorMatrix type="matrix" values="0 0 0 0 0.0341667 0 0 0 0 0.0408 0 0 0 0 0.2 0 0 0 0.03 0"/>
<feBlend mode="normal" in2="BackgroundImageFix" result="effect1_dropShadow_0_1"/>
<feColorMatrix in="SourceAlpha" type="matrix" values="0 0 0 0 0 0 0 0 0 0 0 0 0 0 0 0 0 0 127 0" result="hardAlpha"/>
<feOffset dy="-2"/>
<feGaussianBlur stdDeviation="25"/>
<feColorMatrix type="matrix" values="0 0 0 0 0.0352941 0 0 0 0 0.0392157 0 0 0 0 0.2 0 0 0 0.02 0"/>
<feBlend mode="normal" in2="effect1_dropShadow_0_1" result="effect2_dropShadow_0_1"/>
<feBlend mode="normal" in="SourceGraphic" in2="effect2_dropShadow_0_1" result="shape"/>
</filter>
<clipPath id="clip0_0_1">
<rect width="48" height="26" fill="white" transform="translate(-25 -3)"/>
</clipPath>
<clipPath id="clip1_0_1">
<rect width="14" height="14" fill="white" transform="translate(3 3)"/>
</clipPath>
</defs>
</svg>
